<svg xmlns="http://www.w3.org/2000/svg" xmlns:xlink="http://www.w3.org/1999/xlink" width="80" zoomAndPan="magnify" viewBox="0 0 60 30.000001" height="40" preserveAspectRatio="xMidYMid meet" version="1.0"><path fill="#000000" d="M 9.316406 13.789062 L 13.667969 13.789062 L 13.667969 15.242188 L 9.316406 15.242188 M 15.121094 13.789062 L 19.476562 13.789062 L 19.476562 15.242188 L 15.121094 15.242188 M 20.925781 13.789062 L 25.28125 13.789062 L 25.28125 15.242188 L 20.925781 15.242188 M 26.734375 13.789062 L 31.089844 13.789062 L 31.089844 15.242188 L 26.734375 15.242188 M 32.539062 13.789062 L 36.894531 13.789062 L 36.894531 15.242188 L 32.539062 15.242188 M 38.347656 13.789062 L 42.703125 13.789062 L 42.703125 15.242188 L 38.347656 15.242188 M 44.152344 13.789062 L 48.507812 13.789062 L 48.507812 15.242188 L 44.152344 15.242188 " fill-opacity="1" fill-rule="nonzero"/><path stroke-linecap="round" transform="matrix(0.725806, 0, 0, 0.725806, 9.314516, 13.790324)" fill="none" stroke-linejoin="round" d="M 51.99757 -1.99844 L 56.001737 0.999303 L 51.99757 4.002428 " stroke="#000000" stroke-width="2" stroke-opacity="1" stroke-miterlimit="4"/></svg>