<?xml version="1.0" encoding="utf-8"?>
<!-- Generator: Adobe Illustrator 21.0.0, SVG Export Plug-In . SVG Version: 6.00 Build 0)  -->
<svg version="1.1" id="Capa_1" xmlns="http://www.w3.org/2000/svg" xmlns:xlink="http://www.w3.org/1999/xlink" x="0px" y="0px"
	 viewBox="0 0 512 512" style="enable-background:new 0 0 512 512;" xml:space="preserve">
<style type="text/css">
	.st0{fill:#09CCBF;}
</style>
<path class="st0" d="M416,0H96C43,0,0,43,0,96v320c0,53,43,96,96,96h320c53,0,96-43,96-96V96C512,43,469,0,416,0z M445,332.4
	c0,62.1-50.5,112.6-112.6,112.6H179.6C117.5,445,67,394.5,67,332.4V179.6C67,117.5,117.5,67,179.6,67h152.8
	C394.5,67,445,117.5,445,179.6V332.4z"/>
<path class="st0" d="M332.4,105H179.6c-41.2,0-74.6,33.4-74.6,74.6v152.8c0,41.2,33.4,74.6,74.6,74.6h152.8
	c41.2,0,74.6-33.4,74.6-74.6V179.6C407,138.4,373.6,105,332.4,105z M256,353.8c-53.9,0-97.8-43.9-97.8-97.8s43.9-97.8,97.8-97.8
	s97.8,43.9,97.8,97.8C353.8,309.9,309.9,353.8,256,353.8z M354,182.4c-12.9,0-23.4-10.5-23.4-23.4s10.5-23.4,23.4-23.4
	c12.9,0,23.4,10.5,23.4,23.4S366.9,182.4,354,182.4z"/>
<circle class="st0" cx="256" cy="256" r="59.7"/>
</svg>
