<?xml version="1.0" encoding="utf-8"?>
<!-- Generator: Adobe Illustrator 21.0.0, SVG Export Plug-In . SVG Version: 6.00 Build 0)  -->
<svg version="1.1" id="Capa_1" xmlns="http://www.w3.org/2000/svg" xmlns:xlink="http://www.w3.org/1999/xlink" x="0px" y="0px"
	 viewBox="0 0 512 512" style="enable-background:new 0 0 512 512;" xml:space="preserve">
<style type="text/css">
	.st0{fill:#09CCBF;}
</style>
<g>
	<path class="st0" d="M300.9,298.3c-7.1,0-13.6,3.8-19.7,11.4v-45.9h-18.8v140.3h18.8V394c6.4,7.8,12.9,11.6,19.7,11.6
		c7.6,0,12.6-3.9,15-11.6c1.3-3.8,1.9-10.9,1.9-21.2v-41.7c0-10.3-0.6-17.3-1.9-21C313.5,302.3,308.5,298.3,300.9,298.3z M299,374.3
		c0,9.5-2.8,14.2-8.3,14.2c-3.2,0-6.4-1.6-9.5-4.7v-63.7c3.1-3.1,6.3-4.7,9.5-4.7c5.5,0,8.3,4.7,8.3,14.2V374.3z"/>
	<polygon class="st0" points="122.6,283.7 144.9,283.7 144.9,404.2 166,404.2 166,283.7 188.7,283.7 188.7,283.7 188.7,263.8 
		122.6,263.8 	"/>
	<path class="st0" d="M227,379.6c-4.2,5.9-8.3,8.9-12.1,8.9c-2.5,0-4-1.5-4.4-4.4c-0.1-0.4-0.2-2.9-0.2-7.4v-77.1h-18.8v82.8
		c0,6.9,0.6,12.1,1.7,15.5c1.7,5.2,5.8,7.8,12.3,7.8c6.8,0,14-4.3,21.6-12.9v11.4h18.8h0V299.6H227V379.6z"/>
	<path class="st0" d="M416,0H96C43,0,0,43,0,96v320c0,53,43,96,96,96h320c53,0,96-43,96-96V96C512,43,469,0,416,0z M295.6,102.5
		h19.3v77.7c0,4.7,0.1,7.1,0.2,7.4c0.4,3.1,1.9,4.7,4.4,4.7c3.8,0,7.8-3,12.1-9.1v-80.6h19.3v105.6h-19.3v-11.6
		c-7.5,8.8-14.7,13.1-21.8,13.1c-6.5,0-10.7-2.6-12.5-7.8c-1.1-3.4-1.7-8.7-1.7-15.9V102.5z M223.4,136.8c0-11.3,2-19.5,5.9-24.8
		c5.4-7.2,12.8-10.8,22.2-10.8c9.7,0,17.2,3.6,22.4,10.8c3.9,5.2,5.9,13.5,5.9,24.8v37c0,11.4-2,19.8-5.9,25
		c-5.2,7.2-12.7,10.8-22.4,10.8c-9.5,0-16.9-3.6-22.2-10.8c-4-5.4-5.9-13.7-5.9-25V136.8z M172.2,66.3l15,55.7l14.4-55.7h21.6
		l-25.6,84.5v57.4h-21.2v-57.4c-2-10.4-6.3-25.4-12.9-44.9c-5.2-14.5-9.8-27.7-13.8-39.6H172.2z M407.4,410.5
		c-2,8.3-6.1,15.3-12.3,21c-6.2,5.6-13.4,8.9-21.6,9.7c-26,3-65.1,4.4-117.5,4.4c-52.4,0-91.5-1.5-117.5-4.4
		c-8.2-0.8-15.4-4.1-21.7-9.7c-6.3-5.6-10.3-12.6-12.2-21c-3.7-15.8-5.5-40.5-5.5-74.1c0-33,1.8-57.7,5.5-74.1
		c2-8.3,6.1-15.3,12.3-21c6.2-5.6,13.5-9,21.8-9.9c25.8-2.8,64.9-4.2,117.3-4.2c52.4,0,91.5,1.4,117.5,4.2c8.2,1,15.4,4.3,21.7,9.9
		c6.3,5.6,10.3,12.6,12.2,21c3.7,15.8,5.5,40.5,5.5,74.1C412.9,369.5,411,394.2,407.4,410.5z"/>
	<path class="st0" d="M251.6,192.3c6.1,0,9.1-4.9,9.1-14.8V133c0-9.7-3-14.6-9.1-14.6c-6.1,0-9.1,4.9-9.1,14.6v44.5
		C242.5,187.3,245.5,192.3,251.6,192.3z"/>
	<path class="st0" d="M361.2,298.3c-9.6,0-17.1,3.6-22.7,10.8c-3.9,5.2-5.9,13.4-5.9,24.6v36.6c0,11.1,2,19.3,6.1,24.6
		c5.5,7.2,13.1,10.8,22.9,10.8c10.2,0,17.8-3.7,22.9-11.2c2.5-3.8,4-7.6,4.4-11.4c0.3-1.3,0.4-5.4,0.4-12.3V368h-19.3
		c0,7.2-0.1,11.5-0.4,12.9c-1,5.1-3.8,7.6-8.5,7.6c-6.5,0-9.7-4.9-9.7-14.6v-18.4h37.9h0v-21.8c0-11.1-1.9-19.3-5.7-24.6
		C378.2,301.9,370.7,298.3,361.2,298.3z M370.5,339.6h-19v-9.7c0-9.6,3.2-14.4,9.5-14.4c6.3,0,9.5,4.8,9.5,14.4V339.6z"/>
</g>
</svg>
